<svg id="Layer_1" data-name="Layer 1" xmlns="http://www.w3.org/2000/svg" viewBox="0 0 619.8 154.2"><defs><style>.cls-1,.cls-2{fill:#fff;}.cls-2{font-size:42.37px;font-family:NeuropolX-Regular, Neuropol X;}.cls-3{letter-spacing:-0.03em;}.cls-4{letter-spacing:0em;}.cls-5{letter-spacing:-0.04em;}</style></defs><path class="cls-1" d="M98.1,97.3,64.6,118.1,88,97.8a8.4,8.4,0,0,1,10.1-.5Z"/><path class="cls-1" d="M146,126.6,92.4,64.1a3.6,3.6,0,0,0-4.1-1L73.6,69l15.2-9h0l-1.7-2a3.2,3.2,0,0,0-3.7-.9L68.5,63s14.6-8.7,15.2-8.9l-1.9-2.3a3.7,3.7,0,0,0-4.3-1.1L63.1,56.4s13.3-8,15.1-8.9L75.9,45a3.6,3.6,0,0,0-4.1-1.1L57.5,49.6S70,42.1,72.4,40.8L61.6,28.2,21.9,101.9,59.9,74a8,8,0,0,1,9.3-.2Z"/><path class="cls-1" d="M69.8,77.9,33.4,97,58.8,78.1a9.5,9.5,0,0,1,11-.2Z"/><path class="cls-1" d="M83,87.1l-33.7,21c.6-.6,16.3-14.3,24.3-21.1a7.2,7.2,0,0,1,8.8-.4h.1Z"/><path class="cls-1" d="M144.1,109.7,113,76.6,69.4,30.7,111,79.5S142.9,108.4,144.1,109.7Z"/><text class="cls-2" transform="translate(146.1 90.5)">ARR<tspan class="cls-3" x="129.1" y="0">O</tspan><tspan class="cls-4" x="169.6" y="0">W SC</tspan><tspan class="cls-5" x="317.1" y="0">R</tspan><tspan x="357.9" y="0">AP</tspan></text></svg>